HIERARCHY
ROOT SpineBase
{
  OFFSET 0.000000 0.000000 0.000000
  CHANNELS 6 Xposition Yposition Zposition Zrotation Xrotation Yrotation
  JOINT SpineMid
  {
    OFFSET -0.000000 31.891940 0.000000
    CHANNELS 3 Zrotation Xrotation Yrotation
    JOINT SpineShoulder
    {
      OFFSET 0.139223 23.641468 -0.700879
      CHANNELS 3 Zrotation Xrotation Yrotation
      JOINT Neck
      {
        OFFSET 0.090104 7.818171 -0.570312
        CHANNELS 3 Zrotation Xrotation Yrotation
        JOINT Head
        {
          OFFSET -5.267532 14.178160 -0.237389
          CHANNELS 3 Zrotation Xrotation Yrotation
          End Site
          {
            OFFSET 0 0 0
          }
        }
      }
      JOINT ShoulderLeft
      {
        OFFSET -16.564944 -6.511085 7.163883
        CHANNELS 3 Zrotation Xrotation Yrotation
        JOINT ElbowLeft
        {
          OFFSET -1.073437 -31.559200 2.683680
          CHANNELS 3 Zrotation Xrotation Yrotation
          JOINT WristLeft
          {
            OFFSET -4.901681 -25.732536 -5.796137
            CHANNELS 3 Zrotation Xrotation Yrotation
            JOINT HandLeft
            {
              OFFSET 1.064004 -5.735976 -2.458359
              CHANNELS 3 Zrotation Xrotation Yrotation
              JOINT HandTipLeft
              {
                OFFSET -3.575353 -7.077270 -3.929743
                CHANNELS 3 Zrotation Xrotation Yrotation
                End Site
                {
                  OFFSET 0 0 0
                }
              }
              JOINT ThumbLeft
              {
                OFFSET -1.949536 3.315853 -0.280141
                CHANNELS 3 Zrotation Xrotation Yrotation
                End Site
                {
                  OFFSET 0 0 0
                }
              }
            }
          }
        }
      }
      JOINT ShoulderRight
      {
        OFFSET 14.326346 -3.503908 -9.137831
        CHANNELS 3 Zrotation Xrotation Yrotation
        JOINT ElbowRight
        {
          OFFSET 7.301170 -26.347627 -2.780454
          CHANNELS 3 Zrotation Xrotation Yrotation
          JOINT WristRight
          {
            OFFSET 0.064531 -23.400102 -5.552140
            CHANNELS 3 Zrotation Xrotation Yrotation
            JOINT HandRight
            {
              OFFSET -0.878473 -7.271196 -0.399842
              CHANNELS 3 Zrotation Xrotation Yrotation
              JOINT HandTipRight
              {
                OFFSET 0.054252 -7.371709 -0.840159
                CHANNELS 3 Zrotation Xrotation Yrotation
                End Site
                {
                  OFFSET 0 0 0
                }
              }
              JOINT ThumbRight
              {
                OFFSET -2.157122 -1.733084 -3.145698
                CHANNELS 3 Zrotation Xrotation Yrotation
                End Site
                {
                  OFFSET 0 0 0
                }
              }
            }
          }
        }
      }
    }
  }
  JOINT HipLeft
  {
    OFFSET -6.763936 0.104153 -0.689722
    CHANNELS 3 Zrotation Xrotation Yrotation
    JOINT KneeLeft
    {
      OFFSET -1.675140 -33.220960 2.809344
      CHANNELS 3 Zrotation Xrotation Yrotation
      JOINT AnkleLeft
      {
        OFFSET 14.485628 -37.604079 8.355757
        CHANNELS 3 Zrotation Xrotation Yrotation
        JOINT FootLeft
        {
          OFFSET 0.031614 -6.184496 -4.130444
          CHANNELS 3 Zrotation Xrotation Yrotation
          End Site
          {
            OFFSET 0 0 0
          }
        }
      }
    }
  }
  JOINT HipRight
  {
    OFFSET 7.315926 1.618894 -6.481281
    CHANNELS 3 Zrotation Xrotation Yrotation
    JOINT KneeRight
    {
      OFFSET 8.941532 -30.337147 -0.946986
      CHANNELS 3 Zrotation Xrotation Yrotation
      JOINT AnkleRight
      {
        OFFSET 6.235246 -38.443421 8.855381
        CHANNELS 3 Zrotation Xrotation Yrotation
        JOINT FootRight
        {
          OFFSET -3.614143 -1.970912 -11.623727
          CHANNELS 3 Zrotation Xrotation Yrotation
          End Site
          {
            OFFSET 0 0 0
          }
        }
      }
    }
  }
}
MOTION
Frames: 6
Frame Time: 0.033333
-24.478573 78.033842 342.570698 0.000000 0.000000 22.359148 -0.000000 0.000000 -22.359148 -0.000000 0.000000 0.000000 -0.000000 0.000000 0.000000 0.000000 0.000000 0.000000 -0.000000 0.000000 0.000000 -0.000000 0.000000 0.000000 -0.000000 0.000000 0.000000 -0.000000 0.000000 0.000000 0.000000 0.000000 0.000000 0.000000 0.000000 0.000000 -0.000000 0.000000 0.000000 -0.000000 0.000000 0.000000 -0.000000 0.000000 0.000000 -0.000000 0.000000 0.000000 0.000000 0.000000 0.000000 0.000000 0.000000 0.000000 -0.000000 0.000000 -22.359148 -0.000000 0.000000 0.000000 -0.000000 0.000000 0.000000 0.000000 0.000000 0.000000 -0.000000 0.000000 -22.359148 -0.000000 0.000000 0.000000 -0.000000 0.000000 0.000000 0.000000 0.000000 0.000000
-24.393684 78.036968 342.545563 0.050032 0.025174 22.336531 -0.055845 -0.004271 -22.336545 -0.000000 0.000000 0.000000 -0.000000 0.000000 0.000000 0.000000 0.000000 0.000000 -0.000000 0.000000 0.000000 -0.000000 0.000000 0.000000 1.247566 0.615882 -0.425330 1.722007 -2.436100 -0.236432 0.000000 0.000000 0.000000 0.000000 0.000000 0.000000 -0.000000 0.000000 0.000000 -0.000000 0.000000 0.000000 -0.000000 0.000000 0.000000 0.486645 -1.423622 -0.059978 0.000000 0.000000 0.000000 0.000000 0.000000 0.000000 -0.055845 -0.004271 -22.336545 -0.000000 0.000000 0.000000 -2.256503 5.642869 1.594896 0.000000 0.000000 0.000000 -0.055845 -0.004271 -22.336545 -0.000000 0.000000 0.000000 2.837974 -9.125755 0.527998 0.000000 0.000000 0.000000
-24.317850 78.039596 342.524169 0.091641 0.047085 22.317997 -0.102657 -0.008758 -22.318043 -0.000000 0.000000 0.000000 -0.000000 0.000000 0.000000 0.000000 0.000000 0.000000 -0.000000 0.000000 0.000000 -0.000000 0.000000 0.000000 2.329889 1.219122 -0.790734 2.995111 -4.540932 -0.256029 0.000000 0.000000 0.000000 0.000000 0.000000 0.000000 -0.000000 0.000000 0.000000 -0.000000 0.000000 0.000000 -0.726225 -1.059527 0.161190 1.511369 -1.538429 -0.280764 0.000000 0.000000 0.000000 0.000000 0.000000 0.000000 -0.102657 -0.008758 -22.318043 -0.000000 0.000000 0.000000 -4.132747 9.526795 2.988209 0.000000 0.000000 0.000000 -0.102657 -0.008758 -22.318043 -0.000000 0.000000 0.000000 6.029410 -18.644029 1.673830 0.000000 0.000000 0.000000
-24.251070 78.041727 342.506516 0.124822 0.065731 22.303510 -0.140429 -0.013442 -22.303598 -0.000000 0.000000 0.000000 -0.000000 0.000000 0.000000 0.000000 0.000000 0.000000 -0.000000 0.000000 0.000000 0.285384 -0.869267 0.103696 2.950285 2.670747 -1.235167 3.931328 -6.362301 -0.141824 0.000000 0.000000 0.000000 0.000000 0.000000 0.000000 -0.000000 0.000000 0.000000 -0.000000 0.000000 0.000000 -1.091267 -1.628567 0.241180 1.996720 -1.896137 -0.400763 0.000000 0.000000 0.000000 0.000000 0.000000 0.000000 -1.002233 0.049338 -22.359176 0.820898 0.269774 0.053915 -5.546589 11.754725 4.059135 0.000000 0.000000 0.000000 -0.140429 -0.013442 -22.303598 -0.000000 0.000000 0.000000 9.490376 -27.627099 3.476392 0.000000 0.000000 0.000000
-24.193345 78.043360 342.492604 0.149568 0.081108 22.293039 -0.169157 -0.018308 -22.293172 -0.000000 0.000000 0.000000 -0.000000 0.000000 0.000000 0.000000 0.000000 0.000000 -0.000000 0.000000 0.000000 0.473795 -1.029837 0.093976 3.464846 3.402874 -1.461176 4.609252 -7.940714 0.049428 0.000000 0.000000 0.000000 0.000000 0.000000 0.000000 -0.000000 0.000000 0.000000 -0.000000 0.000000 0.000000 -1.448497 -2.212952 0.318922 2.299705 -1.997261 -0.506660 0.000000 0.000000 0.000000 0.000000 0.000000 0.000000 -1.189374 0.080449 -22.360663 0.981082 0.296788 0.065504 -6.461750 12.477322 4.743498 0.000000 0.000000 0.000000 -0.169157 -0.018308 -22.293172 -0.000000 0.000000 0.000000 13.026757 -35.231429 5.803438 0.000000 0.000000 0.000000
-24.144675 78.044495 342.482433 0.165876 0.093215 22.286559 -0.188835 -0.023345 -22.286733 -0.000000 0.000000 0.000000 -0.000000 0.000000 0.000000 0.000000 0.000000 0.000000 -0.000000 0.000000 0.000000 0.707079 -1.120754 0.061349 3.721743 4.049327 -1.572036 5.078866 -9.307406 0.280008 0.000000 0.000000 0.000000 0.000000 0.000000 0.000000 -0.000000 0.000000 0.000000 -0.000000 0.000000 0.000000 -1.790345 -2.802401 0.393088 2.416981 -1.856326 -0.594084 0.000000 0.000000 0.000000 0.000000 0.000000 0.000000 -1.302646 0.118965 -22.362811 1.884102 0.272243 0.239518 -7.643419 11.867221 4.855046 0.000000 0.000000 0.000000 -0.188835 -0.023345 -22.286733 -0.000000 0.000000 0.000000 16.317557 -40.970691 8.339770 0.000000 0.000000 0.000000
